<?xml version="1.0" encoding="utf-8"?>
<!-- Uploaded to: SVG Repo, www.svgrepo.com, Generator: SVG Repo Mixer Tools -->
<svg width="800px" height="800px" viewBox="0 0 1024 1024" class="icon"  version="1.1" xmlns="http://www.w3.org/2000/svg"><path d="M273.536 472.448h418.432v267.456H273.536z" fill="#ACD3DB" /><path d="M716.032 855.68a21.824 21.824 0 0 1-21.888 21.824H223.168a21.76 21.76 0 0 1-21.76-21.824V141.568a21.76 21.76 0 0 1 21.76-21.824h470.976c12.096 0 21.888 9.792 21.888 21.824V855.68z" fill="#E1B030" /><path d="M112.32 841.088h807.232v76.48H112.32z" fill="#5A7784" /><path d="M264.896 179.008h387.584v247.68H264.896z" fill="#ACD3DB" /><path d="M436.16 390.656l-20.8 36.032h83.2l-20.928-36.032zM334.784 270.784l-22.464 17.152-20.8-27.2 22.464-17.152zM608.64 244.032l22.4 17.088-20.8 27.2-22.4-17.088zM534.144 217.664l26.88 8.96-10.752 32.448-26.88-8.96zM441.216 211.968h28.352v34.24h-28.352zM395.136 249.856l-26.88 8.96-10.88-32.448 26.944-8.96z" fill="#555F69" /><path d="M463.744 402.816l-19.008-11.712 100.096-149.248 7.36 4.544z" fill="#CA5349" /><path d="M820.416 345.984a19.328 19.328 0 0 1-14.272-6.144l-105.664-110.976a19.84 19.84 0 0 1 0.768-27.904 19.648 19.648 0 0 1 27.776 0.768l105.664 111.04a19.712 19.712 0 0 1-14.272 33.216z" fill="#478BBB" /><path d="M842.176 796.032c-9.792 0-20.352-1.408-31.872-4.288-74.304-18.048-65.024-137.408-57.024-190.656h-38.592v-39.424h86.208l-4.928 23.744c-10.624 50.432-18.752 157.824 23.616 168.128 21.12 5.12 36.288 3.904 45.248-3.904 14.912-12.736 20.032-46.4 15.232-100.032-2.944-32.96-14.72-46.976-29.696-64.768-22.912-27.392-48.96-58.368-47.808-150.336l39.296 0.512c-0.96 77.376 18.304 100.224 38.656 124.48 16.256 19.392 34.624 41.28 38.656 86.592 6.144 68.928-2.944 111.296-28.736 133.504-12.608 10.944-28.8 16.448-48.256 16.448z" fill="#5A7784" /><path d="M777.6 326.464h85.632v103.744H777.6z" fill="#478BBB" /></svg>